<?xml version="1.0" encoding="UTF-8" standalone="no"?>
<svg
   width="24"
   height="24"
   version="1.1"
   viewBox="0 0 24 24"
   xmlns="http://www.w3.org/2000/svg"
>
  <g transform="matrix(1.2,0,0,1.2,-2.4,-2.4)">
    <path
       d="M 12,2 C 17.523,2 22,6.478 22,12 22,17.522 17.523,22 12,22 6.477,22 2,17.522 2,12 2,6.478 6.477,2 12,2 Z m 0,1.667 c -4.595,0 -8.333,3.738 -8.333,8.333 0,4.595 3.738,8.333 8.333,8.333 4.595,0 8.333,-3.738 8.333,-8.333 0,-4.595 -3.738,-8.333 -8.333,-8.333 z m -0.0013,10.835 c 0.55155,0 0.99866,0.44712 0.99866,0.99866 0,0.55155 -0.44712,0.99866 -0.99866,0.99866 C 11.44712,16.49932 11,16.0522 11,15.50066 11,14.94911 11.44712,14.502 11.99866,14.502 Z M 11.9945,6.9998 c 0.3797,-3.032e-4 0.69372,0.2816 0.74367,0.64764 l 0.0069,0.10177 0.0036,4.5016 c 3.31e-4,0.41421 -0.33519,0.75027 -0.7494,0.7506 -0.3797,3.03e-4 -0.69372,-0.2816 -0.74367,-0.64764 l -0.0069,-0.10176 -0.0036,-4.5016 c -3.31e-4,-0.41421 0.33519,-0.75027 0.7494,-0.7506 z" />
  </g>
</svg>
