<svg
   width="24"
   height="24"
   version="1.1"
   viewBox="0 0 24 24"
   xmlns="http://www.w3.org/2000/svg"
>
  <g transform="scale(0.07601191)">
    <path
       d="M 157.87,0 C 70.821,0 0,70.819 0,157.87 c 0,87.051 70.82,157.87 157.87,157.87 87.05,0 157.87,-70.82 157.87,-157.87 C 315.74,70.82 244.921,0 157.87,0 Z m 0,295.74 C 81.849,295.74 20,233.893 20,157.87 20,81.85 81.848,20 157.87,20 c 76.02,0 137.87,61.848 137.87,137.87 0,76.022 -61.847,137.87 -137.87,137.87 z" />
    <path
       d="M 266.54,147.87 H 252.12 C 247.454,103.579 212.158,68.283 167.867,63.617 v -14.42 c 0,-5.522 -4.478,-10 -10,-10 -5.523,0 -10,4.478 -10,10 v 14.42 c -44.292,4.666 -79.588,39.961 -84.254,84.253 h -14.42 c -5.522,0 -10,4.478 -10,10 0,5.523 4.478,10 10,10 h 14.42 c 4.666,44.292 39.962,79.588 84.254,84.254 v 14.42 c 0,5.523 4.477,10 10,10 5.522,0 10,-4.477 10,-10 v -14.42 c 44.291,-4.666 79.587,-39.962 84.253,-84.254 h 14.42 c 5.522,0 10,-4.477 10,-10 0,-5.522 -4.478,-10 -10,-10 z m -34.581,0 H 195.591 C 192.018,134.356 181.38,123.719 167.867,120.146 V 83.778 c 33.246,4.466 59.627,30.846 64.092,64.092 z M 147.867,83.778 v 36.367 c -13.514,3.573 -24.152,14.211 -27.725,27.725 H 83.774 C 88.24,114.624 114.621,88.244 147.867,83.778 Z M 83.774,167.87 h 36.368 c 3.573,13.514 14.211,24.152 27.725,27.725 v 36.368 C 114.621,227.498 88.239,201.117 83.774,167.87 Z m 84.093,64.093 v -36.368 c 13.514,-3.573 24.151,-14.211 27.724,-27.725 h 36.368 c -4.465,33.247 -30.845,59.628 -64.092,64.093 z" />
  </g>
</svg>
