<?xml version="1.0" encoding="UTF-8" standalone="no"?>
<svg
   version="1.0"
   width="24pt"
   height="24pt"
   viewBox="0 0 24 24"
   xmlns="http://www.w3.org/2000/svg"
>
  <g
     transform="matrix(0.005,0,0,-0.0050009,-0.8,24.800158)"
     stroke="none"
     id="g12">
    <path
       d="m 4339,4944 c -200,-61 -329,-262 -296,-461 18,-115 45,-81 -317,-403 l -329,-293 -61,21 c -33,11 -79,24 -101,27 -56,8 -155,-9 -221,-39 -104,-48 -210,-177 -229,-279 -4,-20 -11,-40 -16,-43 -5,-3 -132,-31 -282,-63 l -272,-57 -31,41 c -86,112 -242,175 -386,155 -158,-22 -300,-143 -345,-293 -16,-53 -22,-175 -9,-214 6,-19 -23,-42 -263,-212 -149,-105 -273,-191 -277,-191 -4,0 -35,14 -69,31 -76,37 -194,50 -272,29 -183,-49 -311,-201 -321,-382 -8,-129 32,-234 124,-325 159,-159 421,-161 582,-5 97,94 139,209 128,344 l -6,76 269,190 270,191 58,-29 c 151,-75 320,-55 457,53 51,41 113,138 133,209 l 16,57 56,12 c 31,6 155,32 277,58 l 221,47 57,-63 c 220,-242 617,-147 711,170 19,64 19,160 0,223 -11,38 -12,51 -2,60 6,6 157,140 335,298 l 324,288 51,-22 c 242,-101 525,63 568,329 25,159 -53,329 -193,417 -94,60 -236,80 -339,48 z"
       id="path2" />
    <path
       d="m 4052,3810 c -33,-15 -47,-29 -62,-62 -19,-42 -20,-81 -20,-1752 V 286 l 21,-44 c 16,-33 32,-49 63,-63 38,-17 71,-19 411,-19 345,0 373,2 413,20 33,15 47,29 62,62 19,42 20,81 20,1753 v 1711 l -22,44 c -42,80 -39,80 -468,80 -350,0 -378,-2 -418,-20 z"
       id="path4" />
    <path
       d="m 2765,2680 c -16,-11 -38,-34 -47,-52 -17,-31 -18,-107 -18,-1199 V 263 l 23,-34 c 45,-68 49,-69 467,-69 418,0 422,1 467,69 l 23,34 v 1169 c 0,1291 4,1207 -63,1248 -30,19 -53,20 -427,20 -376,0 -396,-1 -425,-20 z"
       id="path6" />
    <path
       d="m 1499,2397 c -74,-49 -69,25 -69,-1102 0,-979 1,-1011 20,-1053 15,-33 29,-47 62,-62 40,-18 68,-20 413,-20 429,0 435,1 474,82 l 21,45 -2,1019 c -3,964 -4,1021 -21,1047 -10,16 -32,37 -50,47 -30,19 -53,20 -423,20 -390,0 -391,0 -425,-23 z"
       id="path8" />
    <path
       d="m 240,1562 c -19,-9 -45,-32 -57,-51 l -23,-34 V 870 263 l 23,-34 c 45,-68 49,-69 467,-69 418,0 422,1 467,69 l 23,34 v 607 607 l -23,34 c -45,68 -49,69 -467,69 -337,0 -379,-2 -410,-18 z"
       id="path10" />
  </g>
</svg>
