<svg
  width="100"
  height="100"
  version="1.1"
  viewBox="0 0 100 100"
  xmlns="http://www.w3.org/2000/svg"
>
  <g transform="matrix(4.75,0,0,4.75,-7,-7)">
    <path d="m12 2c5.523 0 10 4.478 10 10s-4.477 10-10 10-10-4.478-10-10 4.477-10 10-10zm0 1.667c-4.595 0-8.333 3.738-8.333 8.333s3.738 8.333 8.333 8.333 8.333-3.738 8.333-8.333-3.738-8.333-8.333-8.333zm-0.0013 10.835c0.55155 0 0.99866 0.44712 0.99866 0.99866 0 0.55155-0.44712 0.99866-0.99866 0.99866-0.55158 0-0.9987-0.44712-0.9987-0.99866 0-0.55155 0.44712-0.99866 0.99866-0.99866zm-0.004238-7.5022c0.3797-3.032e-4 0.69372 0.2816 0.74367 0.64764l0.0069 0.10177 0.0036 4.5016c3.31e-4 0.41421-0.33519 0.75027-0.7494 0.7506-0.3797 3.03e-4 -0.69372-0.2816-0.74367-0.64764l-0.0069-0.10176-0.0036-4.5016c-3.31e-4 -0.41421 0.33519-0.75027 0.7494-0.7506z"/>
  </g>
</svg>
