<svg
  width="100"
  height="100"
  version="1.1"
  viewBox="0 0 100 100"
  xmlns="http://www.w3.org/2000/svg"
>
  <g transform="matrix(.30088 0 0 .30088 2.5 2.5)">
    <path d="m157.87 0c-87.049 0-157.87 70.819-157.87 157.87s70.82 157.87 157.87 157.87 157.87-70.82 157.87-157.87-70.819-157.87-157.87-157.87zm0 295.74c-76.021 0-137.87-61.847-137.87-137.87 0-76.02 61.848-137.87 137.87-137.87 76.02 0 137.87 61.848 137.87 137.87 0 76.022-61.847 137.87-137.87 137.87z"/>
    <path d="m266.54 147.87h-14.42c-4.666-44.291-39.962-79.587-84.253-84.253v-14.42c0-5.522-4.478-10-10-10-5.523 0-10 4.478-10 10v14.42c-44.292 4.666-79.588 39.961-84.254 84.253h-14.42c-5.522 0-10 4.478-10 10 0 5.523 4.478 10 10 10h14.42c4.666 44.292 39.962 79.588 84.254 84.254v14.42c0 5.523 4.477 10 10 10 5.522 0 10-4.477 10-10v-14.42c44.291-4.666 79.587-39.962 84.253-84.254h14.42c5.522 0 10-4.477 10-10 0-5.522-4.478-10-10-10zm-34.581 0h-36.368c-3.573-13.514-14.211-24.151-27.724-27.724v-36.368c33.246 4.466 59.627 30.846 64.092 64.092zm-84.092-64.092v36.367c-13.514 3.573-24.152 14.211-27.725 27.725h-36.368c4.466-33.246 30.847-59.626 64.093-64.092zm-64.093 84.092h36.368c3.573 13.514 14.211 24.152 27.725 27.725v36.368c-33.246-4.465-59.628-30.846-64.093-64.093zm84.093 64.093v-36.368c13.514-3.573 24.151-14.211 27.724-27.725h36.368c-4.465 33.247-30.845 59.628-64.092 64.093z"/>
  </g>
</svg>
