<svg
	width="100"
	height="100"
	version="1.1"
	viewBox="0 0 100 100"
	xmlSpace="preserve"
	xmlns="http://www.w3.org/2000/svg"
>
	<g transform="matrix(2.6101 0 0 2.6179 2.6429 2.5)">
		<path d="m32.854 17.724c-1.304-1.255-3.146-1.399-4.419-1.399-0.654 0-1.287 0.045-1.884 0.089-0.046 0-0.136-0.026-0.214-0.053-0.125-0.038-0.275-0.084-0.445-0.093-0.606-0.131-1.078-0.258-1.52-0.607-0.902-0.803-1.693-1.804-2.459-2.771l-0.55-0.688c-1.002-1.211-2.23-2.817-2.843-4.544-0.323-0.863-0.455-1.777-0.409-2.882 6e-3 -0.211 0.02-0.414 0.03-0.612 0.046-0.803 0.09-1.561-0.172-2.341-0.37-1.159-1.282-1.823-2.503-1.823-0.822 0-1.685 0.312-2.341 0.833-1.645 1.144-2.702 3.312-2.832 5.806-0.067 1.398 0.359 2.6 0.771 3.761 0.359 1.013 0.699 1.967 0.695 3-4e-3 1.566-1.357 2.002-3.271 2.446-0.209 0.049-0.416 0.097-0.578 0.139-0.219 0.04-0.442 0.077-0.668 0.115-1.436 0.238-3.062 0.511-4.24 1.633-0.889 0.883-1.312 2.34-1.077 3.713 0.169 0.99 0.657 1.805 1.362 2.289-0.444 1.684 0.381 3.646 1.981 4.693-0.153 0.762-0.01 1.623 0.414 2.428 0.476 0.9 1.229 1.604 2.071 1.939 2e-3 1.543 1.055 2.887 2.713 3.355 0.461 0.094 0.961 0.139 1.529 0.139 0.84 0 1.68-0.098 2.492-0.189 0.272-0.031 0.541-0.061 0.854-0.096 0.479-0.098 0.979-0.16 1.482-0.225 1.037-0.133 2.106-0.27 3.075-0.688 0.785-0.35 1.479-0.855 2.146-1.342 0.218-0.158 0.432-0.314 0.652-0.469 0.216-0.154 0.435-0.357 0.657-0.568 0.386-0.363 0.783-0.738 1.168-0.812 0.343-0.066 0.669-0.102 0.985-0.135 0.354-0.039 0.695-0.076 1.031-0.146h0.166c0.354 0 0.743 0.021 1.147 0.047 0.459 0.027 0.937 0.057 1.41 0.057 1.165 0 2.625-0.148 3.566-1.307 1.387-1.646 1.586-4.154 1.596-6.617v-0.107c0.023-1.807 0.038-4.54-1.568-5.968zm-5.277 9.893c-0.36 1.303-1.062 1.84-2.548 1.977-0.461 0-1.028 0-1.562 0.328-0.566 0.156-1.021 0.586-1.428 0.967-0.158 0.15-0.314 0.299-0.459 0.412-0.197 0.143-0.397 0.295-0.603 0.449-0.615 0.467-1.254 0.949-1.824 1.229-0.347 0.088-0.738 0.174-1.132 0.264l-0.76 0.172c-1.593 0.287-3.244 0.438-4.798 0.576-0.522 0-1.062 0-1.604-0.145-0.306-0.039-0.531-0.178-0.673-0.414-0.196-0.324-0.214-0.807-0.056-1.229 0.128-0.291 0.104-0.607-0.064-0.865-0.256-0.396-0.771-0.568-1.166-0.568h-0.052l-0.051 0.01c-0.047 0.012-0.092 0.016-0.137 0.016-0.323 0-0.655-0.27-0.889-0.717-0.294-0.568-0.334-1.256-0.121-1.561 0.246-0.289 0.286-0.709 0.107-1.096-0.158-0.34-0.445-0.562-0.766-0.604-0.754-0.256-1.242-0.729-1.451-1.395-0.154-0.562-0.113-1.205 0.146-1.514 0.247-0.41 0.304-0.889 0.153-1.271-0.125-0.314-0.383-0.543-0.77-0.652-0.718-0.131-0.933-0.713-0.988-1.186-0.117-0.867 0.548-1.527 1.174-1.84 0.959-0.537 2.133-0.729 3.27-0.915 0.609-0.1 1.238-0.201 1.834-0.355 2.037-0.529 3.5-2.122 3.641-3.964 0.099-1.354-0.329-2.599-0.741-3.798-0.351-1.018-0.681-1.978-0.709-2.99-0.029-0.977 0.254-2.055 0.797-3.085 0.52-0.812 1.395-1.686 2.09-1.686 0.035 0 0.071 3e-3 0.1 8e-3 0.429 0.062 0.416 0.877 0.369 1.636l-0.011 0.188c-0.063 1.247-0.09 2.297 0.193 3.513 0.399 1.65 1.338 2.989 2.243 4.284 0.197 0.282 0.396 0.565 0.596 0.86 0.852 1.227 1.936 2.562 3.115 3.842 0.222 0.269 0.467 0.566 0.764 0.771 0.08 0.146 0.187 0.222 0.29 0.259 0.733 0.563 1.517 0.89 2.512 1.052 0.721 0.137 1.341 0.251 1.654 0.778 0.627 1.111 0.646 2.641 0.659 3.863l3e-3 0.291c0.021 1.299 9e-3 2.795-0.347 4.105zm4.6-4.301-2e-3 0.48c9e-3 1.885-0.109 3.809-1.029 5.143-0.309 0.473-0.927 0.508-1.768 0.508h-0.09c0.475-0.965 0.659-2.088 0.773-3.107 0.197-1.855 0.177-3.67-0.062-5.395-0.103-0.756-0.261-1.582-0.621-2.315 0.682 0.075 1.382 0.263 1.916 0.718 0.912 0.759 0.894 2.691 0.883 3.968z"/>
	</g>
</svg>
