<svg
   width="24"
   height="24"
   version="1.1"
   viewBox="0 0 24 24"
   xmlns="http://www.w3.org/2000/svg"
>
  <g transform="matrix(0.08081352,0,0,0.08080808,-8.0813523e-4,0)">
    <path
       d="m 148.5,69.147 c -5.636,0 -10.206,4.57 -10.206,10.206 v 32.3 L 105.393,56.815 c -2.899,-4.835 -9.17,-6.4 -14.002,-3.501 -4.834,2.9 -6.4,9.169 -3.501,14.002 l 51.858,86.435 c 0.015,0.024 0.031,0.033 0.045,0.055 1.792,2.935 5.016,4.901 8.706,4.901 5.636,0 10.206,-4.57 10.206,-10.206 V 79.353 C 158.706,73.717 154.136,69.147 148.5,69.147 Z" />
    <path
       d="M 148.5,0 C 66.622,0 0.01,66.617 0.01,148.5 0.01,230.383 66.624,297 148.5,297 230.376,297 296.99,230.383 296.99,148.5 296.99,66.617 230.376,0 148.5,0 Z m 10.206,276.18 v -6.676 c 0,-5.636 -4.57,-10.206 -10.206,-10.206 -5.636,0 -10.206,4.57 -10.206,10.206 v 6.676 C 75.791,271.229 25.774,221.21 20.824,158.7 h 6.674 c 5.636,0 10.206,-4.57 10.206,-10.206 0,-5.636 -4.57,-10.206 -10.206,-10.206 H 20.824 C 25.776,75.783 75.79,25.768 138.294,20.808 v 6.676 c 0,5.636 4.57,10.206 10.206,10.206 5.636,0 10.206,-4.57 10.206,-10.206 v -6.676 c 62.503,4.951 112.52,54.97 117.47,117.48 h -6.674 c -5.636,0 -10.206,4.57 -10.206,10.206 0,5.636 4.57,10.206 10.206,10.206 h 6.674 c -4.952,62.505 -54.966,112.52 -117.47,117.48 z" />
  </g>
</svg>
