<svg
	width="100"
	height="100"
	version="1.1"
	viewBox="0 0 100 100"
	xmlns="http://www.w3.org/2000/svg"
>
	<g transform="matrix(.31988 0 0 .31987 2.4974 2.5)">
		<path d="m148.5 69.147c-5.636 0-10.206 4.57-10.206 10.206v32.3l-32.901-54.838c-2.899-4.835-9.17-6.4-14.002-3.501-4.834 2.9-6.4 9.169-3.501 14.002l51.858 86.435c0.015 0.024 0.031 0.033 0.045 0.055 1.792 2.935 5.016 4.901 8.706 4.901 5.636 0 10.206-4.57 10.206-10.206v-69.148c1e-3 -5.636-4.569-10.206-10.205-10.206z"/>
		<path d="m148.5 0c-81.878 0-148.49 66.617-148.49 148.5s66.614 148.5 148.49 148.5 148.49-66.617 148.49-148.5-66.614-148.5-148.49-148.5zm10.206 276.18v-6.676c0-5.636-4.57-10.206-10.206-10.206s-10.206 4.57-10.206 10.206v6.676c-62.503-4.951-112.52-54.97-117.47-117.48h6.674c5.636 0 10.206-4.57 10.206-10.206s-4.57-10.206-10.206-10.206h-6.674c4.952-62.505 54.966-112.52 117.47-117.48v6.676c0 5.636 4.57 10.206 10.206 10.206s10.206-4.57 10.206-10.206v-6.676c62.503 4.951 112.52 54.97 117.47 117.48h-6.674c-5.636 0-10.206 4.57-10.206 10.206s4.57 10.206 10.206 10.206h6.674c-4.952 62.505-54.966 112.52-117.47 117.48z"/>
	</g>
</svg>
