<svg
   width="24"
   height="24"
   version="1.1"
   viewBox="0 0 24 24"
   xmlns="http://www.w3.org/2000/svg"
>
  <g transform="matrix(1.199391,0,0,1.2928392,-2.3905221,-3.3624289)">
    <path
       d="m 10.049,15.421 6.2568,-8.4759 c 0.20713,-0.2806 0.59027,-0.36402 0.89531,-0.19493 0.27455,0.15219 0.4092,0.46639 0.33999,0.7642 l -0.03071,0.098419 -3.8701,9.799 c -0.42,1.0634 -1.6225,1.585 -2.686,1.165 -0.08347,-0.03297 -0.16471,-0.07133 -0.2432,-0.11484 -1.0003,-0.55446 -1.3617,-1.8148 -0.80721,-2.8151 l 0.068893,-0.1153 0.076223,-0.11059 6.2568,-8.4759 z m 3.8008,-2.6231 -2.5939,3.514 -0.04,0.06226 c -0.15283,0.27571 -0.05321,0.6231 0.22249,0.77593 l 0.06699,0.03163 c 0.26363,0.10412 0.55829,-0.0018 0.69892,-0.23762 l 0.04092,-0.08329 z m 4.7595,-5.3838 c 0.75455,0.61131 1.4375,1.3369 2.0222,2.172 0.5245,0.74907 1.0295,1.6561 1.32,2.3983 0.15094,0.38574 -0.03941,0.82079 -0.42514,0.97173 -0.38573,0.15094 -0.82079,-0.03941 -0.97173,-0.42514 -0.09729,-0.24864 -0.22712,-0.52622 -0.37728,-0.81181 l -2.0495,1.1833 c -0.35872,0.20711 -0.81741,0.0842 -1.0245,-0.27452 -0.18985,-0.32883 -0.10239,-0.74166 0.18981,-0.9677 l 0.08471,-0.05682 2.0183,-1.1669 -0.23043,-0.31371 C 18.84186,9.70028 18.48753,9.31341 18.10804,8.96313 L 18.4882,7.99885 c 0.03789,-0.095932 0.06671,-0.19342 0.08684,-0.29146 l 0.0237,-0.14735 z M 15.9807,5.8528 C 15.83165,5.93936 15.69428,6.04945 15.57413,6.18143 L 15.45992,6.32065 14.91896,7.05359 C 14.2172,6.80965 13.48846,6.65182 12.74996,6.58315 l -2.42e-4,2.6728 c 0,0.41421 -0.33579,0.75 -0.75,0.75 -0.3797,0 -0.69349,-0.28215 -0.74315,-0.64823 l -0.0068,-0.10177 -3.86e-4,-2.6893 c -1.5967,0.11353 -3.1841,0.64764 -4.5907,1.6326 -0.81595,0.57133 -1.5274,1.3222 -2.1187,2.2047 l 2.0822,1.2021 c 0.35872,0.20711 0.48163,0.6658 0.27452,1.0245 -0.18985,0.32883 -0.5911,0.4595 -0.93296,0.31948 l -0.091559,-0.04496 -2.0742,-1.197 c -0.12777,0.26622 -0.24641,0.54028 -0.35562,0.82127 -0.15006,0.38608 -0.58468,0.5774 -0.97076,0.42734 -0.38608,-0.15006 -0.5774,-0.58468 -0.42734,-0.97076 0.80645,-2.0748 2.0793,-3.8427 3.7541,-5.0154 3.0919,-2.165 6.9344,-2.4585 10.182,-1.1177 z" />
  </g>
</svg>
